<svg width="13" height="16" viewBox="0 0 13 16" fill="none" xmlns="http://www.w3.org/2000/svg">
<path fill-rule="evenodd" clip-rule="evenodd" d="M11.3333 6V5C11.3333 2.243 9.09034 0 6.33334 0C3.57634 0 1.33334 2.243 1.33334 5V6C0.781059 6 0.333344 6.44772 0.333344 7C0.333344 9.5 0.333344 12 0.333344 14.5C0.333344 15.3284 1.00492 16 1.83334 16H10.8333C11.6618 16 12.3333 15.3284 12.3333 14.5C12.3333 12 12.3333 9.5 12.3333 7C12.3333 6.44772 11.8856 6 11.3333 6ZM5.33334 13H7.33334V9H5.33334V13ZM9.33334 6H3.33334V5C3.33334 3.346 4.67934 2 6.33334 2C7.98734 2 9.33334 3.346 9.33334 5V6Z" fill="#5C5F62"/>
</svg>
