<svg width="160" height="49" viewBox="0 0 160 49" fill="none" xmlns="http://www.w3.org/2000/svg">
<path d="M90.9659 24.5789V6.70038H45.8677V24.3036V43.5101L148.665 43.5263V24.5627H90.9659V24.5789ZM46.9579 7.81779H89.8597V24.5789H46.9579V7.81779ZM147.575 42.425H46.9579V25.6963H89.8757V30.2307V37.502H91.1583V32.7408L93.515 36.6599H94.1082L96.4809 32.6761L96.4969 37.502H97.7635L97.7474 30.2307H96.6412L93.8356 35.0566L90.9819 30.2307V25.6963H147.591V42.425H147.575Z" fill="#0A0A0A"/>
<path d="M53.4188 13.5668C53.8036 13.3563 54.2525 13.2429 54.7495 13.2429C55.503 13.2429 56.1443 13.5344 56.6733 14.1012L57.539 13.2753C57.2024 12.8866 56.7855 12.5789 56.3046 12.3684C55.8236 12.1579 55.2785 12.0607 54.6853 12.0607C53.9639 12.0607 53.3066 12.2227 52.7134 12.5466C52.1202 12.8704 51.6713 13.3077 51.3346 13.8745C50.998 14.4413 50.8376 15.0891 50.8376 15.8016C50.8376 16.5142 50.998 17.1619 51.3346 17.7287C51.6713 18.2955 52.1202 18.749 52.7134 19.0567C53.3066 19.3806 53.9639 19.5425 54.6853 19.5425C55.2785 19.5425 55.8076 19.4453 56.3046 19.2348C56.8016 19.0243 57.2024 18.7328 57.539 18.3279L56.6733 17.502C56.1443 18.0688 55.519 18.3603 54.7495 18.3603C54.2525 18.3603 53.8196 18.247 53.4188 18.0364C53.034 17.8259 52.7294 17.5182 52.505 17.1296C52.2805 16.7409 52.1683 16.3036 52.1683 15.8178C52.1683 15.332 52.2805 14.8947 52.505 14.5061C52.7134 14.085 53.018 13.7773 53.4188 13.5668Z" fill="#0A0A0A"/>
<path d="M65.7154 16.2874H69.1944V15.17H65.7154V13.2914H69.6273V12.1578H64.3848V19.4291H69.7715V18.2955H65.7154V16.2874Z" fill="#0A0A0A"/>
<path d="M81.8277 12.6113C81.2345 12.3036 80.5451 12.1578 79.7756 12.1578H76.6333V19.4291H79.7756C80.5451 19.4291 81.2185 19.2833 81.8277 18.9756C82.4209 18.668 82.8858 18.2469 83.2225 17.6963C83.5591 17.1457 83.7195 16.5141 83.7195 15.7854C83.7195 15.0728 83.5591 14.425 83.2225 13.8744C82.8858 13.3238 82.4209 12.9028 81.8277 12.6113ZM82.0361 17.0971C81.8277 17.4696 81.507 17.7611 81.1062 17.9716C80.7054 18.1821 80.2405 18.2793 79.7115 18.2793H77.964V13.2914H79.7115C80.2405 13.2914 80.7054 13.3886 81.1062 13.5991C81.507 13.8097 81.8117 14.1012 82.0361 14.4736C82.2445 14.8461 82.3568 15.2833 82.3568 15.7854C82.3568 16.2874 82.2606 16.7246 82.0361 17.0971Z" fill="#0A0A0A"/>
<path d="M53.4188 31.6396C53.8036 31.4291 54.2525 31.3157 54.7495 31.3157C55.503 31.3157 56.1443 31.6072 56.6733 32.174L57.539 31.3481C57.2024 30.9595 56.7855 30.6518 56.3046 30.4412C55.8236 30.2307 55.2785 30.1335 54.6853 30.1335C53.9639 30.1335 53.3066 30.2955 52.7134 30.6194C52.1202 30.9433 51.6713 31.3805 51.3346 31.9473C50.998 32.5141 50.8376 33.1619 50.8376 33.8744C50.8376 34.587 50.998 35.2348 51.3346 35.8016C51.6713 36.3684 52.1202 36.8218 52.7134 37.1295C53.3066 37.4534 53.9639 37.6153 54.6853 37.6153C55.2785 37.6153 55.8076 37.5182 56.3046 37.3076C56.8016 37.0971 57.2024 36.8056 57.539 36.4007L56.6733 35.5748C56.1443 36.1416 55.519 36.4331 54.7495 36.4331C54.2525 36.4331 53.8196 36.3198 53.4188 36.1093C53.034 35.8987 52.7294 35.591 52.505 35.2024C52.2805 34.8137 52.1683 34.3765 52.1683 33.8906C52.1683 33.4048 52.2805 32.9676 52.505 32.5789C52.7134 32.1578 53.018 31.8501 53.4188 31.6396Z" fill="#0A0A0A"/>
<path d="M68.9539 30.6033C68.3607 30.2794 67.7034 30.1174 66.9659 30.1174C66.2285 30.1174 65.5712 30.2794 64.978 30.6033C64.3848 30.9271 63.9199 31.3644 63.5832 31.9474C63.2465 32.5142 63.0862 33.162 63.0862 33.8583C63.0862 34.5709 63.2465 35.2025 63.5832 35.7693C63.9199 36.3361 64.3848 36.7895 64.978 37.1134C65.5712 37.4373 66.2285 37.5992 66.9659 37.5992C67.7034 37.5992 68.3607 37.4373 68.9539 37.1134C69.5471 36.7895 70.012 36.3522 70.3487 35.7854C70.6854 35.2186 70.8457 34.5709 70.8457 33.8583C70.8457 33.1458 70.6854 32.498 70.3487 31.9312C70.012 31.3806 69.5471 30.9271 68.9539 30.6033ZM69.1784 35.1701C68.9539 35.5587 68.6493 35.8664 68.2806 36.0769C67.8958 36.2875 67.4629 36.4008 66.982 36.4008C66.501 36.4008 66.0681 36.2875 65.6834 36.0769C65.2986 35.8664 64.994 35.5587 64.7856 35.1701C64.5611 34.7814 64.4489 34.3442 64.4489 33.8583C64.4489 33.3725 64.5611 32.9352 64.7856 32.5466C65.01 32.1579 65.2986 31.8502 65.6834 31.6397C66.0681 31.4292 66.501 31.3158 66.982 31.3158C67.4629 31.3158 67.8958 31.4292 68.2806 31.6397C68.6653 31.8502 68.97 32.1579 69.1784 32.5466C69.4028 32.9352 69.515 33.3725 69.515 33.8583C69.499 34.3442 69.3868 34.7814 69.1784 35.1701Z" fill="#0A0A0A"/>
<path d="M83.1903 30.2307L80.3687 35.0404L77.515 30.2307H76.4248V37.502H77.6913V32.7408L80.0641 36.6761H80.6573L83.014 32.6761L83.03 37.502H84.2965L84.2805 30.2307H83.1903Z" fill="#0A0A0A"/>
<path d="M108.713 36.3684H104.641V34.3603H108.12V33.2591H104.641V31.3643H108.569V30.2307H103.311V37.502H108.713V36.3684Z" fill="#0A0A0A"/>
<path d="M115.607 35.3805H117.226C117.355 35.3805 117.435 35.3805 117.499 35.3643L118.974 37.4858H120.417L118.765 35.1052C119.262 34.9109 119.631 34.6194 119.904 34.2145C120.16 33.8259 120.304 33.3562 120.304 32.8056C120.304 32.2712 120.176 31.8178 119.936 31.4291C119.695 31.0404 119.326 30.7489 118.878 30.5384C118.413 30.3279 117.868 30.2307 117.242 30.2307H114.276V37.502H115.607V35.3805ZM115.607 31.3643H117.162C117.739 31.3643 118.188 31.4939 118.493 31.7368C118.797 31.9797 118.942 32.336 118.942 32.8056C118.942 33.2752 118.797 33.6315 118.493 33.8744C118.188 34.1335 117.755 34.2469 117.162 34.2469H115.607V31.3643Z" fill="#0A0A0A"/>
<path d="M127.872 37.1133C128.465 37.4372 129.122 37.5992 129.844 37.5992C130.437 37.5992 130.966 37.502 131.463 37.2915C131.96 37.0809 132.361 36.7895 132.697 36.3846L131.832 35.5587C131.303 36.1255 130.677 36.417 129.908 36.417C129.411 36.417 128.978 36.3036 128.577 36.0931C128.192 35.8826 127.888 35.5749 127.663 35.1862C127.439 34.7975 127.327 34.3603 127.327 33.8745C127.327 33.3886 127.439 32.9514 127.663 32.5627C127.888 32.1741 128.192 31.8664 128.577 31.6559C128.962 31.4453 129.411 31.332 129.908 31.332C130.661 31.332 131.303 31.6235 131.832 32.1903L132.697 31.3644C132.361 30.9757 131.944 30.668 131.463 30.4575C130.982 30.2469 130.437 30.1498 129.844 30.1498C129.122 30.1498 128.465 30.3117 127.872 30.6356C127.279 30.9595 126.83 31.3967 126.493 31.9635C126.156 32.5303 125.996 33.1781 125.996 33.8907C125.996 34.6032 126.156 35.251 126.493 35.8178C126.83 36.3522 127.279 36.8056 127.872 37.1133Z" fill="#0A0A0A"/>
<path d="M143.663 36.3684H139.607V34.3603H143.086V33.2591H139.607V31.3643H143.519V30.2307H138.26V37.502H143.663V36.3684Z" fill="#0A0A0A"/>
<path d="M28.5051 24.5142L36.3448 16.5952L26.5652 6.71661L14.7335 18.6356L8.25659 25.1458L26.4209 43.4939L36.8738 32.9352L28.5051 24.5142ZM12.2165 25.1782L26.5652 10.7328L32.3848 16.6114L26.5331 22.5223L24.2406 20.2065L22.2526 22.2146L24.5452 24.5304L19.5111 29.6154L21.4991 31.6235L26.5331 26.5385L32.8979 32.9676L26.4049 39.5263L12.2165 25.1782Z" fill="url(#paint0_linear_63_3224)"/>
<defs>
<linearGradient id="paint0_linear_63_3224" x1="8.24288" y1="25.1214" x2="36.8518" y2="25.1214" gradientUnits="userSpaceOnUse">
<stop stop-color="#413BBC"/>
<stop offset="0.47" stop-color="#383365"/>
<stop offset="1" stop-color="#0A0A0A"/>
</linearGradient>
</defs>
</svg>
